<?xml version="1.0" standalone="no"?><!DOCTYPE svg PUBLIC "-//W3C//DTD SVG 1.1//EN" "http://www.w3.org/Graphics/SVG/1.1/DTD/svg11.dtd"><svg t="1730256896443" class="icon" viewBox="0 0 1024 1024" version="1.1" xmlns="http://www.w3.org/2000/svg" p-id="2738" xmlns:xlink="http://www.w3.org/1999/xlink" width="48" height="48"><path d="M792.576 325.12v403.968c0 15.36-10.752 29.696-26.112 32.256-19.456 3.072-36.352-11.776-36.352-30.72V231.424c0-34.304-28.16-62.464-62.464-62.464H231.424C197.12 168.96 168.96 197.12 168.96 231.424v529.92c0 51.2 41.984 93.696 93.696 93.696h499.2c51.712 0 93.696-41.984 93.696-93.696V387.072c-0.512-34.304-28.672-61.952-62.976-61.952z m-186.88 358.4H293.888c-17.408 0-31.232-13.824-31.232-31.232 0-17.408 13.824-31.232 31.232-31.232h311.808c17.408 0 31.232 13.824 31.232 31.232 0 17.408-14.336 31.232-31.232 31.232z m0-156.16H293.888c-17.408 0-31.232-13.824-31.232-31.232 0-17.408 13.824-31.232 31.232-31.232h311.808c17.408 0 31.232 13.824 31.232 31.232 0 17.408-14.336 31.232-31.232 31.232z m0-155.648H293.888c-17.408 0-31.232-13.824-31.232-31.232 0-17.408 13.824-31.232 31.232-31.232h311.808c17.408 0 31.232 13.824 31.232 31.232 0 17.408-14.336 31.232-31.232 31.232z" fill="#04A7FE" p-id="2739"></path></svg>