<?xml version="1.0" standalone="no"?><!DOCTYPE svg PUBLIC "-//W3C//DTD SVG 1.1//EN" "http://www.w3.org/Graphics/SVG/1.1/DTD/svg11.dtd"><svg t="1730256382682" class="icon" viewBox="0 0 1024 1024" version="1.1" xmlns="http://www.w3.org/2000/svg" p-id="1724" xmlns:xlink="http://www.w3.org/1999/xlink" width="48" height="48"><path d="M158.47619 365.81181c6.41219 0 12.726857 1.706667 18.285715 4.900571l278.771809 160.938667a36.571429 36.571429 0 0 1 18.285715 31.695238v321.877333a36.571429 36.571429 0 0 1-54.857143 31.670857L140.190476 755.95581a36.571429 36.571429 0 0 1-18.285714-31.695239V402.407619a36.571429 36.571429 0 0 1 36.571428-36.571429z m693.516191 0a36.571429 36.571429 0 0 1 36.571429 36.571428v321.901714a36.571429 36.571429 0 0 1-18.285715 31.670858L591.481905 916.894476a36.571429 36.571429 0 0 1-54.857143-31.695238V563.346286a36.571429 36.571429 0 0 1 18.285714-31.670857l278.77181-160.938667a36.571429 36.571429 0 0 1 18.285714-4.876191zM532.796952 107.056762l272.335238 152.454095a36.571429 36.571429 0 0 1 0.414477 63.585524l-278.186667 160.597333a36.571429 36.571429 0 0 1-36.156952 0.24381l-272.335238-152.429714a36.571429 36.571429 0 0 1-0.414477-63.585524L496.64 107.27619a36.571429 36.571429 0 0 1 36.156952-0.243809z" p-id="1725"></path></svg>